<?xml version="1.0" encoding="utf-8"?>
<!-- Generator: Adobe Illustrator 24.0.1, SVG Export Plug-In . SVG Version: 6.00 Build 0)  -->
<svg version="1.1" id="Layer_1" xmlns="http://www.w3.org/2000/svg" xmlns:xlink="http://www.w3.org/1999/xlink" x="0px" y="0px"
	 viewBox="0 0 1000 1000" style="enable-background:new 0 0 1000 1000;" xml:space="preserve">
<style type="text/css">
	.st0{fill:#A8A8AA;}
	.st1{fill:#003B71;}
</style>
<g>
	<path class="st0" d="M492,598.75c2.06,1.98,4.87,3.2,8,3.2c3.17,0,6.02-1.24,8.08-3.27l74.71-72.06c1.95-1.97,3.17-4.63,3.17-7.56
		V244.68c0-6.02-5.07-10.9-11.32-10.9H425.36c-6.24,0-11.3,4.88-11.3,10.9v274.38c0,2.93,1.2,5.61,3.15,7.56L492,598.75z"/>
	<path class="st1" d="M492.02,652.08c2.06,1.97,4.87,3.18,7.99,3.18c3.18,0,6.07-1.26,8.11-3.31l113.72-109.68
		c2-1.97,3.24-4.67,3.24-7.65V121.18c0-6.04,5.04-10.92,11.3-10.92h149.27c6.26,0,11.32,4.88,11.32,10.92v482.17
		c0,2.96-1.21,5.62-3.18,7.57L508.04,886.52c-2.06,1.98-4.9,3.22-8.03,3.22c-3.09,0-5.89-1.18-7.94-3.12l-285.8-275.65
		c-1.98-1.97-3.23-4.66-3.23-7.63V368.19c0-6.01,5.06-10.9,11.3-10.9h149.28c6.24,0,11.32,4.9,11.32,10.9v166.43
		c0,2.96,1.23,5.67,3.21,7.63L492.02,652.08z"/>
</g>
</svg>
