<?xml version="1.0" encoding="UTF-8"?>
<svg version="1.1" xmlns="http://www.w3.org/2000/svg" width="148" height="120">
<path d="M0 0 C16.48917717 -0.20054405 16.48917717 -0.20054405 23.5859375 -0.24414062 C28.40490682 -0.27388601 33.22339555 -0.30884925 38.04199219 -0.37719727 C41.93241343 -0.4320266 45.82231845 -0.46152595 49.71309662 -0.47438622 C51.18811913 -0.48353587 52.66311741 -0.50139999 54.13791656 -0.52865028 C65.82445768 -0.73575072 76.5478653 0.88745133 85.375 9.25 C94.49112139 18.10273426 99.00241025 27.11704577 99.4375 39.875 C99.11598315 52.21320907 94.81435862 60.96063898 86.34375 69.7109375 C76.10527822 79.2249891 64.5305798 81 51 81 C50.67 93.87 50.34 106.74 50 120 C33.34147452 120.28076167 33.34147452 120.28076167 26.15625 120.34179688 C21.28232453 120.3833972 16.40933267 120.43221844 11.53613281 120.52807617 C7.60026569 120.60499809 3.66540153 120.64616712 -0.27116013 120.6641407 C-1.76135394 120.67692292 -3.25150241 120.70187763 -4.74126053 120.7401104 C-17.45425228 121.05293844 -26.77529522 117.92128487 -37 110.125 C-45.05454543 102.45691003 -48.99265417 93.47265896 -49.40283203 82.50561523 C-49.57893812 70.41258385 -47.2239779 61.58240306 -39.19921875 52.22265625 C-31.76490434 44.70911291 -21.57911936 39.74239434 -11 39 C-7.37 39 -3.74 39 0 39 C0 26.13 0 13.26 0 0 Z " fill="#5EE0E5" transform="translate(49,0)"/>
<path d="M0 0 C16.23961125 -0.20054405 16.23961125 -0.20054405 23.23046875 -0.24414062 C27.97701413 -0.27388283 32.72307145 -0.30883709 37.46923828 -0.37719727 C41.30130563 -0.43203795 45.13284875 -0.46152822 48.96527863 -0.47438622 C50.41797372 -0.4835339 51.8706443 -0.501394 53.32311249 -0.52865028 C64.93854888 -0.73769559 75.6079254 0.94435038 84.375 9.25 C93.49112139 18.10273426 98.00241025 27.11704577 98.4375 39.875 C98.11786831 52.14086603 93.88265929 61.17838425 85.23828125 69.74609375 C73.9091408 79.95504952 64.57223447 79 49 79 C49 66.13 49 53.26 49 40 C41.74 40 34.48 40 27 40 C27 41.32 27 42.64 27 44 C29.31 44 31.62 44 34 44 C34.495 45.98 34.495 45.98 35 48 C35.66 48 36.32 48 37 48 C37 50.31 37 52.62 37 55 C38.2065625 55.185625 38.2065625 55.185625 39.4375 55.375 C40.283125 55.58125 41.12875 55.7875 42 56 C43.57156655 59.1431331 42.11705576 61.365464 41.0625 64.625 C40.68222656 65.81351562 40.30195312 67.00203125 39.91015625 68.2265625 C39.60980469 69.14179687 39.30945313 70.05703125 39 71 C41.97 70.01 41.97 70.01 45 69 C43.8125 71 43.8125 71 42 73 C39.42775899 73.32977449 37.54618683 73.15857037 35.0625 72.4375 C32.86060066 71.83798381 32.86060066 71.83798381 30.0625 72.5 C26.933408 73.01087216 25.05659094 72.62699301 22 72 C21.175 72.165 20.35 72.33 19.5 72.5 C16.68458017 73.06308397 14.77198909 72.61599758 12 72 C11.505 72.495 11.505 72.495 11 73 C8.625 73.3125 8.625 73.3125 6 73 C4.1875 71 4.1875 71 3 69 C4.98 69.33 6.96 69.66 9 70 C8.7834375 69.32453125 8.566875 68.6490625 8.34375 67.953125 C8.0653125 67.06109375 7.786875 66.1690625 7.5 65.25 C7.2215625 64.36828125 6.943125 63.4865625 6.65625 62.578125 C6 60 6 60 6 56 C8.475 55.505 8.475 55.505 11 55 C11 52.69 11 50.38 11 48 C11.66 48 12.32 48 13 48 C13.33 46.68 13.66 45.36 14 44 C16.31 44 18.62 44 21 44 C21 42.68 21 41.36 21 40 C14.07 40 7.14 40 0 40 C0 26.8 0 13.6 0 0 Z " fill="#5372FC" transform="translate(50,0)"/>
<path d="M0 0 C0.5775 0.350625 1.155 0.70125 1.75 1.0625 C4.96934895 2.40389539 6.77141172 1.43595068 9.9375 0.3125 C12.74377606 -0.11269334 14.47729232 0.80872137 17 2 C17.66 1.34 18.32 0.68 19 0 C21.50155602 0.32915211 23.78296208 0.93178808 26.1875 1.6875 C26.785625 1.790625 27.38375 1.89375 28 2 C28.66 1.34 29.32 0.68 30 0 C32.09878056 0.34979676 33.9901179 0.99660303 36 1.6875 C38.58916878 2.09205762 39.80260379 1.33413341 42 0 C42 0.66 42 1.32 42 2 C41.34 2.33 40.68 2.66 40 3 C42.475 3.495 42.475 3.495 45 4 C45 17.2 45 30.4 45 44 C28.83 44 12.66 44 -4 44 C-4 30.8 -4 17.6 -4 4 C-2.02 3.67 -0.04 3.34 2 3 C1.34 2.67 0.68 2.34 0 2 C0 1.34 0 0.68 0 0 Z " fill="#5271FD" transform="translate(53,76)"/>
<path d="M0 0 C0.33 1.32 0.66 2.64 1 4 C1.66 4 2.32 4 3 4 C3.33 2.68 3.66 1.36 4 0 C4 1.32 4 2.64 4 4 C6.64 4 9.28 4 12 4 C12.33 5.32 12.66 6.64 13 8 C13.66 8 14.32 8 15 8 C15 10.31 15 12.62 15 15 C15.804375 15.12375 16.60875 15.2475 17.4375 15.375 C18.283125 15.58125 19.12875 15.7875 20 16 C21.57156655 19.1431331 20.11705576 21.365464 19.0625 24.625 C18.49208984 26.40777344 18.49208984 26.40777344 17.91015625 28.2265625 C17.60980469 29.14179687 17.30945313 30.05703125 17 31 C18.98 30.34 20.96 29.68 23 29 C21.8125 31 21.8125 31 20 33 C17.42775899 33.32977449 15.54618683 33.15857037 13.0625 32.4375 C10.86060066 31.83798381 10.86060066 31.83798381 8.0625 32.5 C4.933408 33.01087216 3.05659094 32.62699301 0 32 C-1.2375 32.2475 -1.2375 32.2475 -2.5 32.5 C-5.31541983 33.06308397 -7.22801091 32.61599758 -10 32 C-10.495 32.495 -10.495 32.495 -11 33 C-13.375 33.3125 -13.375 33.3125 -16 33 C-17.8125 31 -17.8125 31 -19 29 C-17.02 29.33 -15.04 29.66 -13 30 C-13.2165625 29.32453125 -13.433125 28.6490625 -13.65625 27.953125 C-13.9346875 27.06109375 -14.213125 26.1690625 -14.5 25.25 C-14.91765625 23.92742188 -14.91765625 23.92742188 -15.34375 22.578125 C-16 20 -16 20 -16 16 C-14.35 15.67 -12.7 15.34 -11 15 C-11 12.69 -11 10.38 -11 8 C-10.34 8 -9.68 8 -9 8 C-8.67 6.68 -8.34 5.36 -8 4 C-5.36 4 -2.72 4 0 4 C0 2.68 0 1.36 0 0 Z " fill="#06363B" transform="translate(72,40)"/>
<path d="M0 0 C7.26 0 14.52 0 22 0 C22 12.87 22 25.74 22 39 C32.395 38.505 32.395 38.505 43 38 C36.20731879 41.3963406 30.6984756 41 23 41 C22.67 53.87 22.34 66.74 22 80 C21.67 80 21.34 80 21 80 C21 66.8 21 53.6 21 40 C19.02 40 17.04 40 15 40 C15.33 39.34 15.66 38.68 16 38 C16.66 38 17.32 38 18 38 C18 37.34 18 36.68 18 36 C16.35 36 14.7 36 13 36 C12.67 35.34 12.34 34.68 12 34 C12.99 33.01 13.98 32.02 15 31 C14.01 31.33 13.02 31.66 12 32 C10.42843345 28.8568669 11.88294424 26.634536 12.9375 23.375 C13.31777344 22.18648437 13.69804688 20.99796875 14.08984375 19.7734375 C14.39019531 18.85820313 14.69054687 17.94296875 15 17 C12.525 16.01 12.525 16.01 10 15 C10 12.69 10 10.38 10 8 C9.34 8 8.68 8 8 8 C7.67 7.01 7.34 6.02 7 5 C4.69 4.67 2.38 4.34 0 4 C0 2.68 0 1.36 0 0 Z " fill="#72CCEE" transform="translate(77,40)"/>
<path d="M0 0 C3.78239671 0.65690619 7.21841526 1.720131 10.8125 3.0625 C11.78832031 3.42472656 12.76414062 3.78695312 13.76953125 4.16015625 C14.50558594 4.43730469 15.24164063 4.71445312 16 5 C15.55005243 6.79379098 15.08975857 8.58498928 14.625 10.375 C14.36976562 11.37273438 14.11453125 12.37046875 13.8515625 13.3984375 C13 16 13 16 11 18 C7.84308184 18.83076794 5.30300113 19 2 19 C0 17 0 17 -0.1953125 13.0859375 C-0.18200376 11.51550649 -0.15813602 9.94513779 -0.125 8.375 C-0.11597656 7.57320312 -0.10695313 6.77140625 -0.09765625 5.9453125 C-0.07406223 3.96341477 -0.03819065 1.98167019 0 0 Z " fill="#5EE1E7" transform="translate(75,52)"/>
<path d="M0 0 C0.08089542 2.77141717 0.14044062 5.54047819 0.1875 8.3125 C0.21263672 9.09818359 0.23777344 9.88386719 0.26367188 10.69335938 C0.27333984 11.45068359 0.28300781 12.20800781 0.29296875 12.98828125 C0.3086792 13.68477783 0.32438965 14.38127441 0.34057617 15.09887695 C-0.09761557 17.54489783 -1.13437358 18.42702086 -3 20 C-6.29280765 19.45119873 -9.10459594 18.68940099 -12 17 C-14.27711295 13.39606532 -16 9.31474725 -16 5 C-13.89828133 4.1605118 -11.79353375 3.32860344 -9.6875 2.5 C-8.51574219 2.0359375 -7.34398438 1.571875 -6.13671875 1.09375 C-3 0 -3 0 0 0 Z " fill="#60DDE4" transform="translate(73,52)"/>
<path d="M0 0 C2.54661824 0.3118308 4.61707238 -0.18921053 7.10546875 -0.7421875 C8.77213542 -0.40885417 10.43880208 -0.07552083 12.10546875 0.2578125 C12.93046875 0.0721875 13.75546875 -0.1134375 14.60546875 -0.3046875 C17.70255968 -0.84667841 19.3210434 -0.09462267 22.10546875 1.2578125 C21.77546875 1.9178125 21.44546875 2.5778125 21.10546875 3.2578125 C22.09546875 3.9178125 23.08546875 4.5778125 24.10546875 5.2578125 C23.44546875 5.9178125 22.78546875 6.5778125 22.10546875 7.2578125 C19.9747779 6.90269736 18.03399143 6.23468748 15.98046875 5.5703125 C15.36171875 5.4671875 14.74296875 5.3640625 14.10546875 5.2578125 C13.44546875 5.9178125 12.78546875 6.5778125 12.10546875 7.2578125 C10.29296875 6.9453125 10.29296875 6.9453125 8.10546875 6.2578125 C4.40902733 5.22602991 4.40902733 5.22602991 0.79296875 6.1953125 C0.23609375 6.5459375 -0.32078125 6.8965625 -0.89453125 7.2578125 C-1.88453125 6.5978125 -2.87453125 5.9378125 -3.89453125 5.2578125 C-5.87944767 5.52457454 -5.87944767 5.52457454 -7.89453125 6.2578125 C-9.22786458 6.59114583 -10.56119792 6.92447917 -11.89453125 7.2578125 C-12.22453125 5.6078125 -12.55453125 3.9578125 -12.89453125 2.2578125 C-8.17489295 -0.76759667 -5.29906405 -0.83435849 0 0 Z " fill="#66D6DA" transform="translate(68.89453125,71.7421875)"/>
<path d="M0 0 C2.97922593 -0.02683987 5.95821295 -0.04676037 8.9375 -0.0625 C9.78763672 -0.07087891 10.63777344 -0.07925781 11.51367188 -0.08789062 C12.32255859 -0.09111328 13.13144531 -0.09433594 13.96484375 -0.09765625 C14.7137085 -0.10289307 15.46257324 -0.10812988 16.23413086 -0.11352539 C18 0 18 0 19 1 C19.47058824 7.23529412 19.47058824 7.23529412 17.5 10.4375 C17.005 10.953125 16.51 11.46875 16 12 C15.01 11.67 14.02 11.34 13 11 C12.67 10.34 12.34 9.68 12 9 C11.67 10.32 11.34 11.64 11 13 C12.65 13.33 14.3 13.66 16 14 C16.33 16.31 16.66 18.62 17 21 C16.34 21 15.68 21 15 21 C15 23.64 15 26.28 15 29 C13.02 29.99 13.02 29.99 11 31 C9.42843345 27.8568669 10.88294424 25.634536 11.9375 22.375 C12.31777344 21.18648437 12.69804688 19.99796875 13.08984375 18.7734375 C13.39019531 17.85820313 13.69054687 16.94296875 14 16 C11.525 15.01 11.525 15.01 9 14 C9 11.69 9 9.38 9 7 C8.34 7 7.68 7 7 7 C6.67 5.35 6.34 3.7 6 2 C4.02 2 2.04 2 0 2 C0 1.34 0 0.68 0 0 Z " fill="#5DDAE0" transform="translate(78,41)"/>
<path d="M0 0 C0.86625 0.5259375 0.86625 0.5259375 1.75 1.0625 C4.96934895 2.40389539 6.77141172 1.43595068 9.9375 0.3125 C12.74377606 -0.11269334 14.47729232 0.80872137 17 2 C17.66 1.34 18.32 0.68 19 0 C21.50155602 0.32915211 23.78296208 0.93178808 26.1875 1.6875 C26.785625 1.790625 27.38375 1.89375 28 2 C28.66 1.34 29.32 0.68 30 0 C32.09878056 0.34979676 33.9901179 0.99660303 36 1.6875 C38.58916878 2.09205762 39.80260379 1.33413341 42 0 C42 0.66 42 1.32 42 2 C41.34 2.33 40.68 2.66 40 3 C42.475 3.495 42.475 3.495 45 4 C45 17.2 45 30.4 45 44 C44.67 44 44.34 44 44 44 C44 31.13 44 18.26 44 5 C38.72 5 33.44 5 28 5 C26.35 4.34 24.7 3.68 23 3 C20.45699362 3.0057726 20.45699362 3.0057726 17.9375 3.4375 C14.56987149 3.93045024 12.27295774 3.88202202 9 3 C8.67 3.33 8.34 3.66 8 4 C4.27775401 4.29386153 3.22213757 4.14809171 0 2 C0 1.34 0 0.68 0 0 Z " fill="#3658A8" transform="translate(53,76)"/>
<path d="M0 0 C0.33 0 0.66 0 1 0 C1 13.2 1 26.4 1 40 C7.93 40 14.86 40 22 40 C22 41.32 22 42.64 22 44 C20.88625 44.144375 19.7725 44.28875 18.625 44.4375 C15.17857953 44.78372035 15.17857953 44.78372035 13 46 C13 44.68 13 43.36 13 42 C2.77 41.67 -7.46 41.34 -18 41 C-18 40.67 -18 40.34 -18 40 C-11.77007916 38.89245852 -6.57732848 39 0 39 C0 26.13 0 13.26 0 0 Z " fill="#86CCEC" transform="translate(49,0)"/>
<path d="M0 0 C0.66 0.66 1.32 1.32 2 2 C3.98356483 2.71408334 5.98315437 3.38617742 8 4 C7.0409375 4.2165625 7.0409375 4.2165625 6.0625 4.4375 C4.02454854 4.81007181 4.02454854 4.81007181 3 6 C2.95907063 8.33297433 2.95758277 10.66705225 3 13 C3.5775 13.144375 4.155 13.28875 4.75 13.4375 C6.83333333 13.95833333 8.91666667 14.47916667 11 15 C10.67 14.01 10.34 13.02 10 12 C10.99 11.34 11.98 10.68 13 10 C14.2077558 13.62326739 13.54311128 14.64146369 12 18 C11.2575 17.95875 10.515 17.9175 9.75 17.875 C6.91241048 18.00398134 5.41226062 18.57051222 3 20 C1.13437358 18.42702086 0.09761557 17.54489783 -0.34057617 15.09887695 C-0.32486572 14.40238037 -0.30915527 13.70588379 -0.29296875 12.98828125 C-0.28330078 12.23095703 -0.27363281 11.47363281 -0.26367188 10.69335938 C-0.23853516 9.90767578 -0.21339844 9.12199219 -0.1875 8.3125 C-0.17396484 7.51521484 -0.16042969 6.71792969 -0.14648438 5.89648438 C-0.11117089 3.93070033 -0.05736447 1.96526418 0 0 Z " fill="#61D9DD" transform="translate(75,52)"/>
<path d="M0 0 C1 3 1 3 1 5 C0.21625 5.309375 -0.5675 5.61875 -1.375 5.9375 C-3.92330128 6.92875038 -3.92330128 6.92875038 -6 8 C-5.67 8.66 -5.34 9.32 -5 10 C-5.33 10.66 -5.66 11.32 -6 12 C-5.01 11.67 -4.02 11.34 -3 11 C-3 11.66 -3 12.32 -3 13 C-2.01 12.67 -1.02 12.34 0 12 C-0.66 13.32 -1.32 14.64 -2 16 C-3.65 16 -5.3 16 -7 16 C-7.6708712 14.3767313 -8.33657029 12.75132422 -9 11.125 C-9.37125 10.22007813 -9.7425 9.31515625 -10.125 8.3828125 C-11 6 -11 6 -11 4 C-7.37 2.68 -3.74 1.36 0 0 Z " fill="#64DDDD" transform="translate(68,53)"/>
<path d="M0 0 C3.09139012 0.5329983 5.10319937 1.55159968 8 3 C1.73 3 -4.54 3 -11 3 C-10.979375 4.794375 -10.95875 6.58875 -10.9375 8.4375 C-10.92594565 19.63366122 -11.50473324 30.81698195 -12 42 C-12.33 42 -12.66 42 -13 42 C-13 28.8 -13 15.6 -13 2 C-7.06 1.505 -7.06 1.505 -1 1 C-0.67 0.67 -0.34 0.34 0 0 Z " fill="#4B93E5" transform="translate(62,78)"/>
<path d="M0 0 C0.33 1.32 0.66 2.64 1 4 C1.66 4 2.32 4 3 4 C3.33 2.68 3.66 1.36 4 0 C4 1.32 4 2.64 4 4 C6.64 4 9.28 4 12 4 C11.67 5.32 11.34 6.64 11 8 C4.4 8 -2.2 8 -9 8 C-8.67 6.68 -8.34 5.36 -8 4 C-5.36 4 -2.72 4 0 4 C0 2.68 0 1.36 0 0 Z " fill="#397F82" transform="translate(72,40)"/>
<path d="M0 0 C7.92 0 15.84 0 24 0 C24 1.65 24 3.3 24 5 C23.12988281 4.67515625 23.12988281 4.67515625 22.2421875 4.34375 C13.73693997 1.31217662 8.37581308 1.87302978 0 5 C0 3.35 0 1.7 0 0 Z " fill="#6DC6C8" transform="translate(62,49)"/>
<path d="M0 0 C0.26953125 2.2890625 0.26953125 2.2890625 0 5 C-1.86328125 6.8359375 -1.86328125 6.8359375 -4.3125 8.375 C-5.11300781 8.89835937 -5.91351563 9.42171875 -6.73828125 9.9609375 C-9 11 -9 11 -12 10 C-13.6875 8.4375 -13.6875 8.4375 -15 7 C-11.62182575 6.15545644 -9.32534757 5.89155081 -6 7 C-6 5.35 -6 3.7 -6 2 C-1.125 0 -1.125 0 0 0 Z " fill="#6A83EF" transform="translate(134,66)"/>
<path d="M0 0 C0.86625 0.5259375 0.86625 0.5259375 1.75 1.0625 C4.96934895 2.40389539 6.77141172 1.43595068 9.9375 0.3125 C12.74377606 -0.11269334 14.47729232 0.80872137 17 2 C17.66 1.34 18.32 0.68 19 0 C22.84177074 0.30329769 25.09427672 1.52475424 28 4 C27.36191406 3.91621094 26.72382812 3.83242187 26.06640625 3.74609375 C25.24011719 3.64425781 24.41382812 3.54242188 23.5625 3.4375 C22.73878906 3.33308594 21.91507813 3.22867188 21.06640625 3.12109375 C20.04353516 3.06115234 20.04353516 3.06115234 19 3 C18.67 3.33 18.34 3.66 18 4 C14.7680924 4.17469771 12.11574225 3.77893556 9 3 C8.67 3.33 8.34 3.66 8 4 C4.27775401 4.29386153 3.22213757 4.14809171 0 2 C0 1.34 0 0.68 0 0 Z " fill="#083142" transform="translate(53,76)"/>
<path d="M0 0 C1.32 0 2.64 0 4 0 C4.33 2.31 4.66 4.62 5 7 C4.34 7 3.68 7 3 7 C3 9.64 3 12.28 3 15 C1.02 15.99 1.02 15.99 -1 17 C-2.57156655 13.8568669 -1.11705576 11.634536 -0.0625 8.375 C0.31777344 7.18648437 0.69804688 5.99796875 1.08984375 4.7734375 C1.39019531 3.85820313 1.69054687 2.94296875 2 2 C1.34 1.34 0.68 0.68 0 0 Z " fill="#62D4D5" transform="translate(90,55)"/>
<path d="M0 0 C6.06426294 0.31917173 11.31055493 3.27439344 16 7 C16 7.99 16 8.98 16 10 C15.67 9.34 15.34 8.68 15 8 C13.02 8.99 13.02 8.99 11 10 C11 8.35 11 6.7 11 5 C9.700625 4.814375 9.700625 4.814375 8.375 4.625 C5.10486147 4.01941879 2.12743101 3.11693965 -1 2 C-0.67 1.34 -0.34 0.68 0 0 Z " fill="#7E92ED" transform="translate(117,1)"/>
<path d="M0 0 C0.66 0.66 1.32 1.32 2 2 C3.98356483 2.71408334 5.98315437 3.38617742 8 4 C6.68 4.33 5.36 4.66 4 5 C2.82923301 8.98060777 1.74250597 12.91621717 1 17 C0.67 17 0.34 17 0 17 C0 11.39 0 5.78 0 0 Z " fill="#71DEE2" transform="translate(75,52)"/>
<path d="M0 0 C0.99 0 1.98 0 3 0 C3 5.61 3 11.22 3 17 C2.67 17 2.34 17 2 17 C2 13.37 2 9.74 2 6 C1.01 6 0.02 6 -1 6 C-1.33 5.01 -1.66 4.02 -2 3 C-1.34 2.01 -0.68 1.02 0 0 Z " fill="#71DAE0" transform="translate(70,52)"/>
<path d="M0 0 C1.97920676 0.98436738 3.91843879 2.00919014 5.83984375 3.1015625 C3.83984375 4.1015625 3.83984375 4.1015625 1.67578125 3.54296875 C0.86367187 3.25292969 0.0515625 2.96289062 -0.78515625 2.6640625 C-1.60242188 2.37660156 -2.4196875 2.08914062 -3.26171875 1.79296875 C-3.88820313 1.56480469 -4.5146875 1.33664063 -5.16015625 1.1015625 C-5.49015625 1.7615625 -5.82015625 2.4215625 -6.16015625 3.1015625 C-6.16015625 2.4415625 -6.16015625 1.7815625 -6.16015625 1.1015625 C-8.47015625 1.7615625 -10.78015625 2.4215625 -13.16015625 3.1015625 C-13.16015625 2.4415625 -13.16015625 1.7815625 -13.16015625 1.1015625 C-8.60612918 -1.04150906 -4.80068453 -1.99666807 0 0 Z " fill="#0A3539" transform="translate(79.16015625,50.8984375)"/>
<path d="M0 0 C3.3 0.99 6.6 1.98 10 3 C9.01 3.495 9.01 3.495 8 4 C8 4.99 8 5.98 8 7 C7.34 7 6.68 7 6 7 C5.67 7.66 5.34 8.32 5 9 C5 8.01 5 7.02 5 6 C4.34 6 3.68 6 3 6 C3 5.34 3 4.68 3 4 C3.99 4 4.98 4 6 4 C4.02 3.34 2.04 2.68 0 2 C0 1.34 0 0.68 0 0 Z " fill="#52BEC0" transform="translate(76,52)"/>
<path d="M0 0 C-0.33 1.32 -0.66 2.64 -1 4 C-1.99 4 -2.98 4 -4 4 C-4.33 4.99 -4.66 5.98 -5 7 C-6.32 6.34 -7.64 5.68 -9 5 C-7.87926138 4.16094435 -6.75325453 3.32892169 -5.625 2.5 C-4.99851562 2.0359375 -4.37203125 1.571875 -3.7265625 1.09375 C-2 0 -2 0 0 0 Z " fill="#89E3E6" transform="translate(21,45)"/>
<path d="M0 0 C1 3 1 3 1 5 C-1.31 5.66 -3.62 6.32 -6 7 C-6 5.68 -6 4.36 -6 3 C-3 1 -3 1 0 0 Z " fill="#49B3B5" transform="translate(68,53)"/>
<path d="M0 0 C-0.99 0.495 -0.99 0.495 -2 1 C-2.33 1.99 -2.66 2.98 -3 4 C-3.99 4.33 -4.98 4.66 -6 5 C-6.33 3.35 -6.66 1.7 -7 0 C-3.86650268 -1.04449911 -3.01031744 -0.93423645 0 0 Z " fill="#66D0D1" transform="translate(64,57)"/>
<path d="M0 0 C0 1.65 0 3.3 0 5 C-1.32 5 -2.64 5 -4 5 C-4.66 4.01 -5.32 3.02 -6 2 C-1.125 0 -1.125 0 0 0 Z " fill="#607CF6" transform="translate(134,66)"/>
<path d="M0 0 C0.66 0.33 1.32 0.66 2 1 C1.34 3.31 0.68 5.62 0 8 C-1.65 7.67 -3.3 7.34 -5 7 C-3.68 6.34 -2.36 5.68 -1 5 C-1.33 4.01 -1.66 3.02 -2 2 C-1.34 1.34 -0.68 0.68 0 0 Z " fill="#68D2D6" transform="translate(87,62)"/>
<path d="M0 0 C0.66 0 1.32 0 2 0 C1.25 7.625 1.25 7.625 -1 11 C-1.125 3.375 -1.125 3.375 0 0 Z " fill="#83E1E1" transform="translate(2,64)"/>
<path d="M0 0 C1.32 0 2.64 0 4 0 C4.33 1.98 4.66 3.96 5 6 C1.83884224 4.63016497 1.0072908 4.0109362 -1 1 C-0.67 0.67 -0.34 0.34 0 0 Z " fill="#96E6EC" transform="translate(10,105)"/>
<path d="M0 0 C1.32 0.66 2.64 1.32 4 2 C0.7 2 -2.6 2 -6 2 C-6 1.34 -6 0.68 -6 0 C-3.44901433 -1.27549283 -2.66705587 -0.86287102 0 0 Z " fill="#5B9CE1" transform="translate(87,79)"/>
<path d="M0 0 C2.51083114 1.25541557 2.87125446 2.50063488 4 5 C2.68 5.33 1.36 5.66 0 6 C-0.38218767 4.34385343 -0.71395102 2.67542976 -1 1 C-0.67 0.67 -0.34 0.34 0 0 Z " fill="#61CED0" transform="translate(57,73)"/>
<path d="M0 0 C1.32 0.33 2.64 0.66 4 1 C3.67 2.65 3.34 4.3 3 6 C0.525 5.01 0.525 5.01 -2 4 C-2 3.34 -2 2.68 -2 2 C-1.34 2 -0.68 2 0 2 C0 1.34 0 0.68 0 0 Z " fill="#5AC4C6" transform="translate(87,56)"/>
<path d="M0 0 C0.33 1.32 0.66 2.64 1 4 C3.64 4 6.28 4 9 4 C9 4.33 9 4.66 9 5 C5.37 5.33 1.74 5.66 -2 6 C-2 5.34 -2 4.68 -2 4 C-1.34 4 -0.68 4 0 4 C0 2.68 0 1.36 0 0 Z " fill="#173E45" transform="translate(75,40)"/>
<path d="M0 0 C3.07536854 0.65900754 5.07735566 1.53867783 8 3 C4.7 3 1.4 3 -2 3 C-1.34 2.01 -0.68 1.02 0 0 Z " fill="#5F9EE4" transform="translate(62,78)"/>
<path d="M0 0 C0.66 0.66 1.32 1.32 2 2 C0.35 3.98 -1.3 5.96 -3 8 C-3.33 6.68 -3.66 5.36 -4 4 C-2.68 3.67 -1.36 3.34 0 3 C0 2.01 0 1.02 0 0 Z " fill="#8093EA" transform="translate(139,61)"/>
</svg>
